<svg width="64" height="64" viewBox="0 0 64 64" fill="none" xmlns="http://www.w3.org/2000/svg">
<circle cx="32" cy="25" r="18" fill="white"/>
<path d="M32 2C36.2713 2 40.4584 3.18907 44.0918 5.43457C47.7252 7.68016 50.662 10.8934 52.5723 14.7139C54.4825 18.5343 55.2908 22.8114 54.9072 27.0654C54.5236 31.3194 52.9631 35.3828 50.4004 38.7998L33.5996 61.2002C33.4134 61.4484 33.1721 61.6503 32.8945 61.7891C32.6168 61.9279 32.3105 62 32 62C31.6895 62 31.3832 61.9279 31.1055 61.7891C30.8279 61.6503 30.5866 61.4484 30.4004 61.2002L13.5996 38.7998C11.0369 35.3828 9.47635 31.3194 9.09277 27.0654C8.7092 22.8114 9.51754 18.5343 11.4277 14.7139C13.338 10.8934 16.2748 7.68016 19.9082 5.43457C23.5416 3.18906 27.7287 2 32 2ZM40 39.998C43.0275 38.3891 45.5101 35.8966 47.1035 32.834C48.9343 29.3151 49.4771 25.2664 48.6377 21.3896C47.7982 17.513 45.6292 14.0517 42.5068 11.6055C39.3843 9.15924 35.5041 7.88134 31.5391 7.99414C27.5741 8.10699 23.7733 9.60296 20.7949 12.2227C17.8166 14.8425 15.8472 18.4216 15.2295 22.3398C14.6118 26.2582 15.3841 30.2696 17.4121 33.6787C19.1938 36.6738 21.8471 39.0375 25 40.4678V23.0732L23.7842 22.2617V22.2607C23.2358 21.8958 22.7858 21.4009 22.4746 20.8203C22.163 20.2388 21.9998 19.5894 22 18.9297V16C22 15.4696 22.2109 14.961 22.5859 14.5859C22.961 14.2109 23.4696 14 24 14C24.3998 14 24.787 14.1202 25.1143 14.3398C25.2126 14.059 25.3715 13.8004 25.5859 13.5859C25.961 13.2109 26.4696 13 27 13C27.5304 13 28.039 13.2109 28.4141 13.5859C28.6284 13.8003 28.7864 14.0591 28.8848 14.3398C29.2121 14.1199 29.5999 14 30 14C30.5304 14 31.039 14.2109 31.4141 14.5859C31.7891 14.961 32 15.4696 32 16V18.9297L31.9922 19.1768C31.9569 19.7509 31.798 20.3116 31.5254 20.8203C31.214 21.4012 30.7636 21.8957 30.2148 22.2607L30.2158 22.2617L29 23.0732V41.7246C31.322 42.1526 33.7078 42.0806 36 41.5127V34C34.9391 34 33.922 33.5783 33.1719 32.8281C32.4217 32.078 32 31.0609 32 30V26.3984C32.0085 21.804 33.5731 17.3472 36.4385 13.7559L36.4404 13.7539C36.699 13.4318 37.0513 13.198 37.4482 13.084C37.8453 12.97 38.2681 12.9813 38.6582 13.1172C39.0483 13.2531 39.3867 13.5067 39.627 13.8428C39.8672 14.1789 39.9976 14.581 40 14.9941V39.998Z" fill="url(#paint0_linear_431_21)" stroke="white" stroke-width="2"/>
<defs>
<linearGradient id="paint0_linear_431_21" x1="32" y1="3" x2="32" y2="61" gradientUnits="userSpaceOnUse">
<stop stop-color="#FE4800"/>
<stop offset="1" stop-color="#FF8312"/>
</linearGradient>
</defs>
</svg>
